<svg width="16" height="16" viewBox="0 0 16 16" fill="none" xmlns="http://www.w3.org/2000/svg">
<g clip-path="url(#clip0)">
<path d="M8.00391 13.9998L8.00391 7.99982" stroke="#18A0FB" stroke-width="1.5" stroke-linecap="round" stroke-linejoin="round"/>
<path d="M13.6011 12.2595C14.2513 11.905 14.765 11.3441 15.061 10.6653C15.3571 9.98643 15.4186 9.22834 15.2359 8.51065C15.0533 7.79295 14.6368 7.15653 14.0522 6.70182C13.4677 6.24711 12.7484 6.00001 12.0078 5.99952H11.1678C10.966 5.21902 10.5899 4.49441 10.0678 3.88018C9.54561 3.26596 8.89102 2.77809 8.15319 2.45326C7.41535 2.12843 6.61349 1.97509 5.80786 2.00478C5.00224 2.03446 4.21383 2.24639 3.5019 2.62463C2.78998 3.00288 2.17306 3.53759 1.69753 4.18858C1.22201 4.83956 0.900246 5.58988 0.756439 6.38312C0.612632 7.17636 0.650523 7.99187 0.867262 8.76836C1.084 9.54485 1.47395 10.2621 2.00779 10.8662" stroke="#18A0FB" stroke-width="1.5" stroke-linecap="round" stroke-linejoin="round"/>
<path d="M5.33952 11.3331L8.00618 13.9998L10.6729 11.3332" stroke="#18A0FB" stroke-width="1.5" stroke-linecap="round" stroke-linejoin="round"/>
</g>
<defs>
<clipPath id="clip0">
<rect width="16" height="16" fill="white"/>
</clipPath>
</defs>
</svg>
